<svg version="1.1" id="svg2" xmlns="http://www.w3.org/2000/svg" x="0" y="0" viewBox="0 0 3000 954.5" style="enable-background:new 0 0 3000 954.5" xml:space="preserve"><style>.st0{fill:#d22a36}</style><g id="g137" transform="matrix(1 0 0 1 -301.713 -336)"><path id="path14" class="st0" d="m787.8 1201.5-43.4-111.7 419.1 21.5-18.8 178.8-356.9-88.6z"/><path id="path18" class="st0" d="M888.2 336 301.7 613.1l90.7 417.5H512L491.3 732l18.4-5.7 71.9 304.3H706l-4.6-363.8 18.4-5.7 62.9 369.5h131.6l31-439.4 18.3-5.7 32.6 445.1h174l61.2-611.1L888.2 336z"/><path id="path22" class="st0" d="m2699.6 1244.9-1.2-34.8 120.4-1.4 1.1-38-122.9-1.5-1.2-35.3 162-3.8 1.3-41.6h-218.5l-6.5 202.1H2863l-1.6-41.7-161.8-4zM1610 1170.6l-2.6 37.8 60.8 2-.8 38.4-127.2-3.7 5.5-110.9 174.9-4-2.5-41.7h-225.9l-20.3 202.1h257.4l-6.7-121.9-112.6 1.9zm1594.4 15.6-166.9-28.2.7-21.9 159.7-6-4-41.7h-205.3l-10.5 104.8 169.7 29.5.8 19.3-176.6 6.9-4.3 41.7h247.2l-10.5-104.4z"/><path id="path26" class="st0" d="m2523.1 1290.5-20.3-202.1h-58.2l-83.5 96.3-83.6-96.3h-58.2l-20.3 202.1h68.3l6.5-131.1 87.1 89.4 87.1-89.4 6.6 131.1h68.5z"/><path id="path30" class="st0" d="M2236 348.4h-136.7l-12.4 625H2252l-16-625z"/><path id="path34" class="st0" d="m2659.7 837.4-150.9 4.9-5-367.6 157.8 4.8-1.9 357.9zm132.2-488.8h-426.3L2349 973.3h473.2l-30.3-624.7z"/><path id="path38" class="st0" d="m3301.7 485.1-15.2-136.8h-420l3.6 121.8 134.3 4.6 13.8 498.5h165.5l-49.5-494 167.5 5.9z"/><path id="path42" class="st0" d="m1677.9 476.2 131.8-4.4 15 124.5-152.1 71.8 5.3-191.9zm153.9 497.1h179.4l-116.9-280.5 93.3-51-63.8-293.5h-458.1l-15.1 135.4 102.5-3.4-49.4 493h160.4l4.3-157.1 115.6-63.1 47.8 220.2z"/><path id="path46" class="st0" d="m1919.1 1199.5 13.9-66.1 66.7-3 13.9 66.3-94.5 2.8zm114.3 91h69.2l-54.7-202.1h-162.3l-54.7 202.1h69.2l10.7-51 112.3 1.4 10.3 49.6z"/></g></svg>